<svg width="32" height="32" viewBox="0 0 32 32" fill="none" xmlns="http://www.w3.org/2000/svg">
<circle cx="16" cy="16" r="16" fill="#F9CC00"/>
<path d="M11.8332 24.3332H9.33317C8.89114 24.3332 8.46722 24.1576 8.15466 23.845C7.8421 23.5325 7.6665 23.1085 7.6665 22.6665V16.8332C7.6665 16.3911 7.8421 15.9672 8.15466 15.6547C8.46722 15.3421 8.89114 15.1665 9.33317 15.1665H11.8332M17.6665 13.4998V10.1665C17.6665 9.50346 17.4031 8.86758 16.9343 8.39874C16.4654 7.9299 15.8295 7.6665 15.1665 7.6665L11.8332 15.1665V24.3332H21.2332C21.6351 24.3377 22.0252 24.1968 22.3314 23.9365C22.6377 23.6762 22.8396 23.3139 22.8998 22.9165L24.0498 15.4165C24.0861 15.1776 24.07 14.9337 24.0026 14.7017C23.9353 14.4697 23.8183 14.2551 23.6597 14.0728C23.5012 13.8904 23.3049 13.7448 23.0845 13.6459C22.8641 13.5469 22.6248 13.4971 22.3832 13.4998H17.6665Z" stroke="white" stroke-width="2" stroke-linecap="round" stroke-linejoin="round"/>
</svg>
