<svg width="32" height="32" viewBox="0 0 32 32" fill="none" xmlns="http://www.w3.org/2000/svg">
<circle cx="16" cy="16" r="16" fill="#0D28A6"/>
<path d="M20.1665 7.6665H11.8332C9.53198 7.6665 7.6665 9.53198 7.6665 11.8332V20.1665C7.6665 22.4677 9.53198 24.3332 11.8332 24.3332H20.1665C22.4677 24.3332 24.3332 22.4677 24.3332 20.1665V11.8332C24.3332 9.53198 22.4677 7.6665 20.1665 7.6665Z" stroke="white" stroke-linecap="round" stroke-linejoin="round"/>
<path d="M19.3333 15.4748C19.4361 16.1683 19.3176 16.8766 18.9947 17.4989C18.6718 18.1213 18.1609 18.6259 17.5346 18.9412C16.9083 19.2564 16.1986 19.3661 15.5064 19.2547C14.8142 19.1433 14.1747 18.8165 13.679 18.3207C13.1832 17.825 12.8564 17.1855 12.745 16.4933C12.6336 15.8011 12.7433 15.0913 13.0585 14.4651C13.3737 13.8388 13.8784 13.3279 14.5007 13.005C15.1231 12.682 15.8314 12.5636 16.5249 12.6664C17.2324 12.7713 17.8873 13.101 18.393 13.6067C18.8987 14.1124 19.2283 14.7673 19.3333 15.4748Z" stroke="white" stroke-linecap="round" stroke-linejoin="round"/>
<path d="M20.5835 11.4165H20.5918" stroke="white" stroke-linecap="round" stroke-linejoin="round"/>
</svg>
