<svg width="32" height="32" viewBox="0 0 32 32" fill="none" xmlns="http://www.w3.org/2000/svg">
<circle cx="16" cy="16" r="16" fill="#0D28A6"/>
<path d="M25.1668 8.50008C24.3688 9.06298 23.4853 9.4935 22.5502 9.77508C22.0483 9.198 21.3813 8.78899 20.6394 8.60335C19.8974 8.41771 19.1164 8.46441 18.4019 8.73712C17.6874 9.00984 17.0739 9.49541 16.6443 10.1282C16.2148 10.7609 15.9899 11.5104 16.0002 12.2751V13.1084C14.5357 13.1464 13.0846 12.8216 11.776 12.163C10.4674 11.5043 9.34209 10.5323 8.50016 9.33341C8.50016 9.33341 5.16683 16.8334 12.6668 20.1667C10.9506 21.3317 8.90613 21.9159 6.8335 21.8334C14.3335 26.0001 23.5002 21.8334 23.5002 12.2501C23.4994 12.018 23.4771 11.7864 23.4335 11.5584C24.284 10.7197 24.8842 9.66067 25.1668 8.50008V8.50008Z" stroke="white" stroke-linecap="round" stroke-linejoin="round"/>
</svg>
